<?xml version="1.0" encoding="UTF-8"?><svg id="a" xmlns="http://www.w3.org/2000/svg" width="32" height="32" viewBox="0 0 32 32"><path d="M16,1.39c.39,0,.76,.15,1.04,.43l13.14,13.14c.58,.57,.58,1.51,0,2.08l-13.14,13.14c-.28,.28-.65,.43-1.04,.43s-.76-.15-1.04-.43L1.82,17.04c-.58-.57-.58-1.51,0-2.08L10.39,6.39l1.58,1.58c-.38,1.41,0,2.95,1.07,4.02,.26,.26,.55,.48,.86,.66v6.7c-1.27,.73-2.09,2.09-2.09,3.61,0,2.3,1.87,4.17,4.17,4.17s4.17-1.87,4.17-4.17c0-1.51-.82-2.87-2.09-3.61v-5.27l.85,.85c-.38,1.41,0,2.95,1.07,4.02,.79,.79,1.84,1.22,2.95,1.22s2.16-.43,2.95-1.22c1.63-1.63,1.63-4.27,0-5.9-.79-.79-1.83-1.22-2.94-1.22-.37,0-.73,.05-1.09,.14l-1.86-1.86c.38-1.41,0-2.95-1.07-4.02-.79-.79-1.83-1.22-2.94-1.22-.37,0-.73,.05-1.09,.14l-1.58-1.58,1.61-1.61c.28-.28,.65-.43,1.04-.43m0-1.39c-.73,0-1.47,.28-2.02,.84l-2.6,2.6,3.21,3.21c.44-.26,.93-.39,1.42-.39,.71,0,1.41,.27,1.95,.81,.92,.92,1.05,2.31,.42,3.37l3.16,3.16c.44-.26,.93-.39,1.42-.39,.71,0,1.41,.27,1.95,.81,1.09,1.09,1.09,2.85,0,3.93-.54,.54-1.26,.82-1.97,.82s-1.42-.27-1.97-.82c-.92-.92-1.05-2.31-.42-3.37l-3.16-3.16c-.23,.13-.46,.23-.71,.29v8.55c1.2,.31,2.09,1.39,2.09,2.68,0,1.54-1.24,2.78-2.78,2.78s-2.78-1.24-2.78-2.78c0-1.3,.89-2.37,2.09-2.68V11.73c-.46-.12-.91-.35-1.27-.71-.92-.92-1.05-2.31-.42-3.37l-3.22-3.22L.84,13.98c-1.12,1.12-1.12,2.93,0,4.05l13.14,13.14c.56,.56,1.29,.84,2.02,.84s1.47-.28,2.02-.84l13.14-13.14c1.12-1.12,1.12-2.93,0-4.05L18.02,.84c-.56-.56-1.29-.84-2.02-.84Z" fill="#c500c5"/></svg>