<?xml version="1.0" encoding="UTF-8"?><svg id="a" xmlns="http://www.w3.org/2000/svg" width="30.5" height="34" viewBox="0 0 30.5 34"><path d="M30.31,.41c-.19-.26-.49-.41-.81-.41H11.34c-.32,0-.62,.15-.81,.41s-.24,.59-.15,.89l3.67,11.51c-1.8,.54-3.12,2.19-3.12,4.16,0,1.38,.66,2.61,1.67,3.41-1.04,2.25-3.95,3.76-5.05,4.26-1.04-.75-1.38-2.41-1.45-3.55,1.92-.46,3.35-2.18,3.35-4.24,0-2.41-1.96-4.37-4.37-4.37S.72,14.45,.72,16.86c0,1.15,.46,2.19,1.19,2.97-.72,1.25-1.91,3.93-1.91,8.09,0,2.2,.95,3.92,2.75,4.99,1.29,.77,2.88,1.09,4.39,1.09s2.96-.33,3.96-.88c2.84-1.55,7.47-3.56,9.58-3.99,.33-.07,.7-.13,1.09-.19,2.53-.42,6.34-1.06,7.58-4.28,.96-2.51,.37-4.34-.12-5.28,.42-.67,.67-1.45,.67-2.3,0-1.98-1.34-3.64-3.15-4.17L30.45,1.3c.1-.3,.04-.64-.15-.89ZM15.31,14.61s.05,0,.08,0c.16,0,.32,.03,.48,.07,.05,.01,.1,.03,.15,.05,.12,.04,.23,.08,.34,.14,.78,.39,1.32,1.18,1.32,2.11,0,1.31-1.06,2.37-2.37,2.37-.16,0-.31-.02-.46-.05-.07-.01-.15-.04-.22-.06-.98-.29-1.69-1.19-1.69-2.26,0-1.31,1.06-2.37,2.37-2.37Zm6.02,1.37h-1.78c-.21-.88-.68-1.64-1.33-2.23l2.2-3.99,2.24,4.08c-.64,.56-1.11,1.3-1.33,2.15Zm-16.24-1.49c1.31,0,2.37,1.06,2.37,2.37s-1.06,2.37-2.37,2.37c-.21,0-.42-.04-.62-.09-.05-.01-.09-.03-.14-.04-.19-.07-.38-.15-.55-.26-.64-.42-1.06-1.15-1.06-1.97,0-1.31,1.06-2.37,2.37-2.37Zm22.39,9.46h0c-.83,2.15-3.72,2.63-6.04,3.02-.42,.07-.8,.13-1.16,.21-2.65,.53-7.62,2.81-10.14,4.19-1.32,.72-4.38,1-6.37-.18-1.17-.7-1.77-1.8-1.77-3.27,0-3.58,.99-5.9,1.57-6.97,.17,.06,.35,.12,.53,.16,.09,1.53,.58,4.46,2.98,5.55,.25,.11,.52,.12,.77,.02,.21-.08,4.94-1.93,6.59-5.43,.29,.06,.58,.09,.87,.09s.56-.03,.82-.08c.09-.02,.17-.05,.25-.07,.18-.05,.35-.1,.52-.16,.09-.04,.18-.08,.27-.12,.15-.07,.3-.15,.44-.24,.09-.05,.17-.11,.25-.17,.13-.1,.26-.2,.38-.31,.07-.07,.15-.13,.21-.2,.12-.13,.23-.27,.34-.41,.05-.07,.1-.13,.15-.2,.28-.42,.49-.89,.61-1.39h1.69c.06,.27,.14,.52,.24,.77,.03,.08,.08,.15,.12,.23,.08,.16,.16,.32,.26,.47,.06,.09,.12,.17,.18,.25,.1,.13,.2,.26,.31,.37,.07,.08,.15,.15,.23,.22,.12,.11,.24,.21,.36,.3,.09,.06,.17,.13,.27,.18,.14,.09,.28,.16,.43,.23,.09,.05,.18,.09,.28,.13,.17,.07,.34,.11,.52,.16,.09,.02,.17,.05,.26,.07,.27,.05,.54,.08,.83,.08,.26,0,.52-.03,.77-.08,.07-.01,.13-.02,.2-.04,.24-.06,.48-.12,.71-.22,.03-.01,.06-.03,.09-.05,.13-.06,.27-.12,.4-.19,.21,.67,.31,1.71-.21,3.06Zm.42-6.86c0,.63-.25,1.2-.66,1.63-.07,.07-.14,.13-.21,.19-.05,.04-.09,.08-.15,.12-.09,.06-.18,.11-.27,.16-.05,.02-.09,.05-.14,.07-.12,.05-.24,.09-.37,.12-.03,0-.06,.02-.08,.03-.16,.03-.32,.05-.49,.05-1.3,0-2.35-1.05-2.37-2.39,0-.93,.55-1.72,1.34-2.1,.1-.05,.2-.09,.3-.12,.06-.02,.12-.04,.18-.06,.12-.03,.24-.04,.36-.05,.06,0,.12-.02,.18-.02,1.31,0,2.37,1.06,2.37,2.37Zm-3.21-4.29s-.02,0-.03,0c0,0,0,0,0,0-.08,.02-.15,.03-.23,.05l-3.12-5.68c-.18-.32-.51-.52-.88-.52s-.7,.2-.88,.52l-3.07,5.57c-.08-.02-.16-.04-.24-.06-.03,0-.05-.01-.08-.02-.01,0-.03,0-.04,0L12.71,2h15.42l-3.45,10.81Z" fill="#c500c5"/></svg>