<?xml version="1.0" encoding="UTF-8"?><svg id="a" xmlns="http://www.w3.org/2000/svg" width="28.17" height="34" viewBox="0 0 28.17 34"><path d="M28.17,18.46h-1.94V8.66c0-.09,0-.17-.03-.25-.04-.26-.17-.52-.35-.72,0-.02-.03-.04-.05-.06L18.6,.43s-.04-.04-.06-.05c-.2-.18-.45-.31-.72-.35-.08-.02-.17-.03-.25-.03H3.4c-.81,0-1.46,.65-1.46,1.46V18.46H0v8.74H1.94v5.34c0,.81,.65,1.46,1.46,1.46H24.77c.81,0,1.46-.65,1.46-1.46v-5.34h1.94v-8.74Zm-10.2-9.71h7.29v9.71H7.77V.97h9.71v7.29c0,.27,.21,.49,.49,.49Zm6.6-.97h-6.11V1.66l6.11,6.11ZM2.91,1.46c0-.27,.21-.49,.49-.49h3.4V18.46H2.91V1.46Zm0,31.09v-5.34h3.89v5.83H3.4c-.27,0-.49-.21-.49-.49Zm22.34,0c0,.27-.21,.49-.49,.49H7.77v-5.83H25.26v5.34Zm1.94-6.31H.97v-6.8H27.2v6.8Z" fill="#c500c5"/><g><path d="M8.54,20.69h1.84c.24,0,.45,.04,.64,.12s.34,.19,.47,.32c.13,.13,.22,.28,.29,.45,.07,.17,.1,.33,.1,.5,0,.18-.03,.35-.1,.52-.07,.17-.16,.32-.29,.45-.13,.13-.28,.24-.47,.31-.18,.08-.4,.12-.63,.12h-1.06v1.87h-.79v-4.66Zm.79,2.12h.89c.16,0,.3-.02,.41-.06,.11-.04,.2-.09,.27-.16s.12-.15,.15-.24,.05-.19,.05-.29-.02-.2-.06-.29c-.04-.09-.09-.16-.17-.23s-.16-.11-.27-.15c-.11-.04-.23-.05-.37-.05h-.89v1.46Z" fill="#c500c5"/><path d="M15.26,22.02l-.97,3.33h-.76l-1.18-4.66h.82l.77,3.09,.95-3.09h.72l.94,3.06,.79-3.06h.81l-1.19,4.66h-.75l-.97-3.33Z" fill="#c500c5"/><path d="M20.82,20.69l1.7,4.66h-.82l-.5-1.36h-1.68c-.08,.22-.16,.45-.25,.68-.09,.23-.17,.46-.25,.68h-.82l1.7-4.66h.91Zm-.46,.98l-.59,1.66h1.19l-.59-1.66Z" fill="#c500c5"/></g></svg>