<?xml version="1.0" encoding="UTF-8"?><svg id="a" xmlns="http://www.w3.org/2000/svg" width="30" height="33.64" viewBox="0 0 30 33.64"><path d="M29.64,.47c-.27-.3-.65-.47-1.05-.47H1.4C1.01,0,.62,.17,.36,.47S-.04,1.16,0,1.56L3.1,29.39c.06,.57,.46,1.04,1.01,1.19l10.5,3c.13,.04,.26,.05,.39,.05s.26-.02,.39-.05l10.5-3c.55-.16,.95-.63,1.01-1.19L29.99,1.56c.04-.4-.08-.79-.35-1.09Zm-6.9,13.68l-.63,10.23-7.07,2.31-7.07-2.31-.27-4.89h3.58l.09,2.22,3.67,1.25,3.67-1.25,.27-4h-7.88l-.18-3.56h8.24l.27-3.56H7.08l-.27-3.56H23.19l-.45,7.12Z" fill="#eeab00"/></svg>