<?xml version="1.0" encoding="UTF-8"?><svg id="a" xmlns="http://www.w3.org/2000/svg" width="28" height="30.33" viewBox="0 0 28 30.33"><path d="M13.99,0c-.43,0-.85,.1-1.22,.31L1.21,6.99c-.75,.43-1.21,1.25-1.21,2.11v12.11c0,.88,.47,1.68,1.21,2.11l3.04,1.75c1.47,.72,1.99,.72,2.66,.72,2.18,0,3.43-1.32,3.43-3.6V9.7c0-.19-.15-.34-.34-.34h-1.46c-.2,0-.34,.15-.34,.34v12.48c0,1.03-1.06,2.03-2.78,1.18l-3.17-1.83c-.12-.06-.19-.19-.19-.31V9.11c0-.14,.07-.26,.19-.33L13.81,2.11c.11-.07,.25-.07,.36,0l11.56,6.67c.12,.07,.19,.19,.19,.32v12.11c0,.13-.07,.26-.18,.31l-11.57,6.69c-.11,.06-.26,.06-.36,0l-2.98-1.76c-.08-.06-.2-.07-.28-.02-.83,.47-.98,.52-1.75,.79-.19,.06-.48,.17,.1,.5l3.86,2.29c.37,.21,.79,.33,1.21,.33s.85-.12,1.22-.33l11.58-6.69c.75-.43,1.21-1.24,1.21-2.11V9.11c0-.88-.47-1.68-1.21-2.11L15.21,.31c-.37-.21-.79-.31-1.22-.31Zm3.11,9.34c-3.3,0-5.27,1.4-5.27,3.73,0,2.53,1.96,3.23,5.13,3.55,3.79,.37,4.08,.93,4.08,1.68,0,1.28-1.04,1.83-3.47,1.83-3.07,0-3.75-.77-3.97-2.29-.02-.16-.16-.28-.33-.28h-1.51c-.19,0-.33,.15-.33,.33,0,1.95,1.06,4.27,6.12,4.27,3.66,0,5.76-1.44,5.76-3.96s-1.69-3.16-5.24-3.64c-3.61-.47-3.97-.71-3.97-1.55,0-.7,.32-1.62,2.98-1.62,2.37,0,3.25,.51,3.62,2.11,.04,.15,.16,.27,.33,.27h1.51c.09,0,.17-.05,.24-.12,.06-.06,.09-.15,.08-.26-.23-2.75-2.06-4.05-5.77-4.05Z" fill="#eeab00"/></svg>