<?xml version="1.0" encoding="UTF-8"?><svg id="a" xmlns="http://www.w3.org/2000/svg" width="32" height="19.2" viewBox="0 0 32 19.2"><path d="M16,0c-4.27,0-6.93,2.13-8,6.4,1.6-2.13,3.47-2.93,5.6-2.4,1.22,.3,2.09,1.19,3.05,2.16,1.57,1.59,3.38,3.43,7.35,3.43,4.27,0,6.93-2.13,8-6.4-1.6,2.13-3.47,2.93-5.6,2.4-1.22-.3-2.09-1.19-3.05-2.16-1.57-1.59-3.38-3.43-7.35-3.43h0ZM8,9.6C3.73,9.6,1.07,11.73,0,16c1.6-2.13,3.47-2.93,5.6-2.4,1.22,.3,2.09,1.19,3.05,2.16,1.57,1.59,3.38,3.43,7.35,3.43,4.27,0,6.93-2.13,8-6.4-1.6,2.13-3.47,2.93-5.6,2.4-1.22-.3-2.09-1.19-3.05-2.16-1.57-1.59-3.38-3.43-7.35-3.43h0Z" fill="#eeab00"/></svg>