<?xml version="1.0" encoding="UTF-8"?><svg id="a" xmlns="http://www.w3.org/2000/svg" width="26.24" height="30" viewBox="0 0 26.24 30"><path d="M23.2,15.01c2.04-1.53,3.04-4.15,3.04-6.9C26.24,3.57,22.6,.1,18.08,0H1.09C.49,0,0,.49,0,1.09v.09c0,.34,.16,.64,.42,.86,.1,.09,.2,.17,.3,.26,2.96,2.65,4.92,7.14,4.92,12.52S3.61,25.34,.5,27.95h-.01c-.26,.23-.42,.53-.42,.87v.09c0,.6,.49,1.09,1.09,1.09H18.15c4.52-.1,8.09-3.93,8.09-8.48,0-2.74-1-4.99-3.04-6.51Zm-16.56-.19c0-3.42-.76-6.6-2.15-9.24L23.2,15.01,4.36,24.59c1.45-2.75,2.28-6.18,2.28-9.77Z" fill="#eeab00"/></svg>