<?xml version="1.0" encoding="UTF-8"?><svg id="a" xmlns="http://www.w3.org/2000/svg" width="32.05" height="32" viewBox="0 0 32.05 32"><polygon points="14.26 22.54 16.45 20.25 18.64 22.54 18.64 32 14.26 32 14.26 22.54" fill="#eeab00"/><polygon points="10.75 20.26 13.87 19.69 14.29 22.83 8.74 30.48 5.19 27.91 10.75 20.26" fill="#eeab00"/><polygon points="9.26 16.34 12.11 17.72 10.61 20.51 1.62 23.43 .26 19.27 9.26 16.34" fill="#eeab00"/><polygon points="10.35 12.3 11.85 15.09 8.99 16.47 0 13.54 1.35 9.38 10.35 12.3" fill="#eeab00"/><polygon points="13.61 9.67 13.18 12.81 10.06 12.24 4.5 4.59 8.05 2.02 13.61 9.67" fill="#eeab00"/><polygon points="17.79 9.46 15.6 11.75 13.41 9.46 13.41 0 17.79 0 17.79 9.46" fill="#eeab00"/><polygon points="21.3 11.74 18.18 12.31 17.76 9.17 23.31 1.52 26.86 4.09 21.3 11.74" fill="#eeab00"/><polygon points="22.79 15.65 19.94 14.28 21.44 11.49 30.43 8.57 31.79 12.73 22.79 15.65" fill="#eeab00"/><polygon points="21.7 19.7 20.2 16.91 23.06 15.53 32.05 18.46 30.7 22.62 21.7 19.7" fill="#eeab00"/><polygon points="18.45 22.33 18.87 19.19 21.99 19.76 27.55 27.41 24 29.98 18.45 22.33" fill="#eeab00"/></svg>