<?xml version="1.0" encoding="UTF-8"?><svg id="a" xmlns="http://www.w3.org/2000/svg" width="32" height="32" viewBox="0 0 32 32"><path d="M0,0V32H32V0H0ZM2.91,2.91H29.09V29.09H2.91V2.91Zm4.36,5.82v14.55h2.91v-5.82h1.45c2.39,0,4.36-1.97,4.36-4.36s-1.97-4.36-4.36-4.36H7.27Zm2.91,2.91h1.45c.82,0,1.45,.63,1.45,1.45s-.63,1.45-1.45,1.45h-1.45v-2.91Zm10.91,0c-1.99,0-3.64,1.65-3.64,3.64s1.65,3.64,3.64,3.64c.41,0,.73,.31,.73,.73,0,.53-.09,.73-.73,.73-.55,0-.63-.12-.64-.14s-.09-.06-.09-.41h-2.91c0,.82,.23,1.76,.91,2.45s1.67,1,2.73,1c2.05,0,3.64-1.76,3.64-3.64,0-1.99-1.65-3.64-3.64-3.64-.41,0-.73-.31-.73-.73s.31-.73,.73-.73c.39,0,.5,.09,.59,.18s.14,.28,.14,.41h2.91c0-.82-.28-1.68-.91-2.36s-1.62-1.14-2.73-1.14Z" fill="#eeab00"/></svg>