<?xml version="1.0" encoding="UTF-8"?><svg id="a" xmlns="http://www.w3.org/2000/svg" width="30" height="30" viewBox="0 0 30 30"><path d="M1.91,0C.86,0,0,.86,0,1.91V28.09c0,1.04,.86,1.91,1.91,1.91H28.09c1.04,0,1.91-.86,1.91-1.91V1.91c0-1.04-.86-1.91-1.91-1.91H1.91Zm0,1.43H28.09c.27,0,.48,.21,.48,.48V28.09c0,.27-.21,.48-.48,.48H1.91c-.27,0-.48-.21-.48-.48V1.91c0-.27,.21-.48,.48-.48ZM22.47,13c-2.51,0-4.12,1.61-4.12,3.72,0,2.29,1.35,3.37,3.38,4.23l.7,.3c1.28,.56,1.91,.9,1.91,1.87,0,.8-.61,1.38-1.78,1.38-1.39,0-2.04-.94-2.65-1.93l-2.21,1.47c.83,1.63,2.31,2.95,4.92,2.95s4.66-1.39,4.66-3.92c0-2.35-1.35-3.39-3.74-4.42l-.7-.3c-1.21-.52-1.73-.86-1.73-1.71,0-.68,.52-1.21,1.35-1.21s1.33,.34,1.81,1.21l2.19-1.4c-.92-1.63-2.21-2.25-4-2.25Z" fill="#eeab00"/><polygon points="17 13 17 16 14 16 14 27 11 27 11 16 8 16 8 13 17 13" fill="#eeab00"/></svg>