<?xml version="1.0" encoding="UTF-8"?><svg id="a" xmlns="http://www.w3.org/2000/svg" width="502" height="189.18" viewBox="0 0 502 189.18"><path d="M0,161.2H4.93v-5.02h2.01v-6.39h4.13v3.39h4.93v-4.47h2.95v-8.86h2.44l1.12-1.2v-15.26h8.97v4.46s.08,1.9,1.45,1.9,1.53-1.41,1.53-1.9v-6.66h3.93v-2.03h5.54v-30.3s7.77-4.05,16.66-4.05v31.5s-.5,3.39,2.44,3.39,2.4-3.76,2.4-3.76l.04-9.84s.91-1.32,.91-2.81v-29.48l1.86-1.74v-30.1s1.24-1.65,1.24-3.22,3.39-2.48,5.95-2.48v-1.82s4.46-.91,7.28,0l1.49-2.48s8.43,1.24,11.24,4.05v100.63l3.14,2.15v-38.12l24.14,1.74v35.14l2.89,1.07v5.62l3.8-1.57v-8.19h7.77v-6.45l-1.41-.41,8.6-5.04,.74,5.37,2.32-.99-.91,2.81v3.47s.91,1.32,.91,2.73l2.81-2.32v-20.01s2.98,.74,2.98-2.98c0,0,1.24,2.15,5.21,2.15l1.07-2.15V21.5l3.39-1.07s.74-7.36,5.62-8.68V0h.66s.17,3.06,1.98,3.06,1.74-1.57,3.06-1.57,1.74,1.57,2.81,1.57,1.9-1.24,1.9-2.56h1.07V6.12s1.07,1.82,1.07,2.98v2.98s7.77,5.79,7.77,11l3.14,5.04v102.11l1.07,3.8v16.78l2.15,.99v-10h5.29v4.22l3.8-2.56V40.27l-1.16-.25v-2.56l10.09-3.06V11.16h1.07v22.99l5.21-1.07v-1.9l6.28,7.44-1.74,1.82v102.44l4.88,6.37v-24.72l-1.24-2.15v-8.02l1.24-1.16v-6.53h6.2v-7.28h1.57v-1.24h1.98v1.24h2.23v7.11h6.78v7.28h5.13v-6.28h1.24v-2.31l3.06,2.14v4.22h4.63l1.98,2.73v8.68s3.64-2.56,4.88-2.07c0,0,.25,2.23,2.48,2.23l.99-1.57v-7.94l6.53-2.73v-3.31l.99-.91v-1.48h2.07v1.48l1.7,1.7v4.92h4.34v-6.95h6.53v-7.03h2.65v-1.24h1.98v1.16h.99v7.19h6.86v7.94h1.07v8.6h-.99v20.59l1.49,1.49h2.23v16.7l4.22,1.24v-29.1h3.72v-42.11h7.33v-7.94h3.09v-1.63h2.01v1.63h1.96v7.79h7.03v8.52h17.78l1.98,2.32v33.82l1.9,2.65v22.32l2.32,.08V96.49h3.06V38.12h10.09v1.98h1.98v-2.07h6.95v1.82h2.23v-1.9h10.17v57.3h8.35l2.48,1.16V38.2h1.16v-3.89h3.89v-8.1h3.56v-4.05h4.13V13.81l3.14-6.78,2.89,7.52v7.52h3.72v4.22h4.3v7.94h3.8v4.13h1.24v93.6l28.03,.17v2.07h2.81v9.01h8.02v5.29h2.07v2.4h4.13v9.43l1.57,.99v-5.21h8.1v2.48h3.06v2.4h3.14v28.19H0v-27.97Z" fill="#eeab00"/></svg>