<?xml version="1.0" encoding="UTF-8"?><svg id="circuitry" xmlns="http://www.w3.org/2000/svg" width="1443.18" height="924.02" viewBox="0 0 1443.18 924.02"><g opacity=".5"><path d="M1440.4,296.89l-77.54,77.54h-125.7l-228.95,228.96v60.8l-144.02,144.02h-46.84l-81.43,81.44" fill="none" stroke="#f3f7ff" stroke-miterlimit="10" stroke-width="7.85"/><path d="M926.3,589.76h66.5l121.48-121.48v-86.7l165.59-165.59" fill="none" stroke="#f3f7ff" stroke-miterlimit="10" stroke-width="4.91"/><path d="M745.74,857.27l70.47-70.46h42.84" fill="none" stroke="#f3f7ff" stroke-miterlimit="10" stroke-width="4.91"/><path d="M1440.4,2.78l-398.5,398.5h-64.71" fill="none" stroke="#f3f7ff" stroke-miterlimit="10" stroke-width="7.85"/><path d="M968.76,613.54h-94.88l-81.71,81.72h-47.56" fill="none" stroke="#f3f7ff" stroke-miterlimit="10" stroke-width="7.85"/><path d="M987.43,768.28l62.14-62.15h110.48" fill="none" stroke="#f3f7ff" stroke-miterlimit="10" stroke-width="7.85"/><path d="M903.04,812.52l223.78-223.78h72.89l91.55-91.55" fill="none" stroke="#f3f7ff" stroke-miterlimit="10" stroke-width="4.91"/><path d="M1389.59,168.43l-83,82.99v53.71" fill="none" stroke="#f3f7ff" stroke-miterlimit="10" stroke-width="4.91"/><path d="M1246.17,399.68l-205.87,205.88" fill="none" stroke="#f3f7ff" stroke-miterlimit="10" stroke-width="4.91"/><path d="M758.66,821.34l132.47-132.47v-43.73" fill="none" stroke="#f3f7ff" stroke-miterlimit="10" stroke-width="4.91"/><path d="M815.82,835.54l-51.78,51.78v26.21" fill="none" stroke="#f3f7ff" stroke-miterlimit="10" stroke-width="7.85"/><path d="M1440.4,331.41l-67.31,67.32h-93.35l-101.01,101.02" fill="none" stroke="#f3f7ff" stroke-miterlimit="10" stroke-width="7.85"/><path d="M1440.4,370.54l-54.78,54.78h-74.87" fill="none" stroke="#f3f7ff" stroke-miterlimit="10" stroke-width="4.91"/><path d="M1096.25,455.63l-106.78,106.77" fill="none" stroke="#f3f7ff" stroke-miterlimit="10" stroke-width="2.94"/><path d="M847.34,755.68h36.77" fill="none" stroke="#f3f7ff" stroke-miterlimit="10" stroke-width="2.94"/><path d="M860.13,742.89h36.77" fill="none" stroke="#f3f7ff" stroke-miterlimit="10" stroke-width="2.94"/><path d="M872.92,730.1h36.76" fill="none" stroke="#f3f7ff" stroke-miterlimit="10" stroke-width="2.94"/><path d="M885.7,717.32h36.77" fill="none" stroke="#f3f7ff" stroke-miterlimit="10" stroke-width="2.94"/><path d="M898.49,704.52h36.77" fill="none" stroke="#f3f7ff" stroke-miterlimit="10" stroke-width="2.94"/><path d="M1138.31,387.98l121.48-121.48" fill="none" stroke="#f3f7ff" stroke-miterlimit="10" stroke-width="2.94"/><path d="M1368.48,216.37l-34.52,34.53v70.33" fill="none" stroke="#f3f7ff" stroke-miterlimit="10" stroke-width="2.94"/><path d="M728.87,904.42c5,0,9.05-4.05,9.05-9.05s-4.05-9.05-9.05-9.05-9.05,4.05-9.05,9.05,4.05,9.05,9.05,9.05Z" fill="none" stroke="#f3f7ff" stroke-miterlimit="10" stroke-width="7.85"/><path d="M1172.33,515.18c5,0,9.05-4.05,9.05-9.05s-4.05-9.05-9.05-9.05-9.05,4.05-9.05,9.05,4.05,9.05,9.05,9.05Z" fill="none" stroke="#f3f7ff" stroke-miterlimit="10" stroke-width="7.85"/><path d="M1077.45,615.68c4.99,0,9.04-4.05,9.04-9.05s-4.05-9.05-9.04-9.05-9.05,4.05-9.05,9.05,4.05,9.05,9.05,9.05Z" fill="none" stroke="#f3f7ff" stroke-miterlimit="10" stroke-width="7.85"/><path d="M821.71,838.7c5,0,9.05-4.05,9.05-9.05s-4.05-9.05-9.05-9.05-9.05,4.05-9.05,9.05,4.05,9.05,9.05,9.05Z" fill="none" stroke="#f3f7ff" stroke-miterlimit="10" stroke-width="7.85"/><path d="M979.24,622.85c5,0,9.05-4.05,9.05-9.05s-4.05-9.05-9.05-9.05-9.05,4.05-9.05,9.05,4.05,9.05,9.05,9.05Z" fill="none" stroke="#f3f7ff" stroke-miterlimit="10" stroke-width="7.85"/><path d="M986.91,548.17c5,0,9.05-4.05,9.05-9.05s-4.05-9.05-9.05-9.05-9.05,4.05-9.05,9.05,4.05,9.05,9.05,9.05Z" fill="none" stroke="#f3f7ff" stroke-miterlimit="10" stroke-width="7.85"/><path d="M981.03,783.71c5,0,9.05-4.05,9.05-9.05s-4.05-9.05-9.05-9.05-9.05,4.05-9.05,9.05,4.05,9.05,9.05,9.05Z" fill="none" stroke="#f3f7ff" stroke-miterlimit="10" stroke-width="7.85"/><path d="M763.91,924.02c5.79,0,10.49-4.7,10.49-10.49s-4.7-10.49-10.49-10.49-10.49,4.7-10.49,10.49,4.7,10.49,10.49,10.49Z" fill="#f3f7ff"/><path d="M1160.05,716.62c5.8,0,10.49-4.7,10.49-10.49s-4.69-10.49-10.49-10.49-10.49,4.7-10.49,10.49,4.7,10.49,10.49,10.49Z" fill="#f3f7ff"/><path d="M977.19,411.51c5.79,0,10.49-4.7,10.49-10.49s-4.7-10.49-10.49-10.49-10.49,4.7-10.49,10.49,4.7,10.49,10.49,10.49Z" fill="#f3f7ff"/><path d="M744.46,705.62c5.79,0,10.49-4.7,10.49-10.49s-4.7-10.49-10.49-10.49-10.49,4.7-10.49,10.49,4.7,10.49,10.49,10.49Z" fill="#f3f7ff"/><path d="M1068.5,425.07c5.79,0,10.49-4.7,10.49-10.49s-4.7-10.49-10.49-10.49-10.49,4.7-10.49,10.49,4.7,10.49,10.49,10.49Z" fill="#f3f7ff"/><path d="M1285.37,473.15c5.79,0,10.49-4.7,10.49-10.49s-4.7-10.49-10.49-10.49-10.49,4.7-10.49,10.49,4.7,10.49,10.49,10.49Z" fill="#f3f7ff"/><path d="M758.79,821.21c2.4,2.41,2.4,6.3,0,8.69-2.41,2.4-6.3,2.4-8.69,0-2.4-2.41-2.4-6.3,0-8.69,2.4-2.4,6.3-2.4,8.69,0Z" fill="none" stroke="#f3f7ff" stroke-miterlimit="10" stroke-width="4.91"/><path d="M1250.33,614.59c3.39,0,6.15-2.76,6.15-6.15s-2.76-6.15-6.15-6.15-6.16,2.75-6.16,6.15,2.76,6.15,6.16,6.15Z" fill="none" stroke="#f3f7ff" stroke-miterlimit="10" stroke-width="4.91"/><path d="M1133.46,430.7c3.4,0,6.15-2.75,6.15-6.15s-2.75-6.15-6.15-6.15-6.15,2.75-6.15,6.15,2.75,6.15,6.15,6.15Z" fill="none" stroke="#f3f7ff" stroke-miterlimit="10" stroke-width="4.91"/><path d="M869.78,781.83c2.4,2.4,2.4,6.3,0,8.69-2.41,2.4-6.3,2.4-8.69,0-2.4-2.4-2.4-6.3,0-8.69,2.41-2.4,6.3-2.41,8.69,0Z" fill="none" stroke="#f3f7ff" stroke-miterlimit="10" stroke-width="4.91"/><path d="M924.26,585.67c2.4,2.4,2.4,6.3,0,8.69-2.4,2.41-6.3,2.41-8.69,0-2.4-2.4-2.4-6.3,0-8.69,2.4-2.4,6.3-2.4,8.69,0Z" fill="none" stroke="#f3f7ff" stroke-miterlimit="10" stroke-width="4.91"/><path d="M1300.2,488.49c2.41,2.4,2.41,6.3,0,8.69-2.4,2.4-6.29,2.4-8.69,0-2.39-2.41-2.4-6.3,0-8.69,2.41-2.4,6.3-2.4,8.69,0Z" fill="none" stroke="#f3f7ff" stroke-miterlimit="10" stroke-width="4.91"/><path d="M741.4,868.67c3.89,0,7.05-3.16,7.05-7.05s-3.16-7.05-7.05-7.05-7.05,3.16-7.05,7.05,3.16,7.05,7.05,7.05Z" fill="#f3f7ff"/><path d="M903.03,819.57c3.89,0,7.05-3.16,7.05-7.05s-3.16-7.05-7.05-7.05-7.05,3.16-7.05,7.05,3.16,7.05,7.05,7.05Z" fill="#f3f7ff"/><path d="M891.01,652.05c3.89,0,7.05-3.16,7.05-7.05s-3.16-7.05-7.05-7.05-7.05,3.16-7.05,7.05,3.16,7.05,7.05,7.05Z" fill="#f3f7ff"/><path d="M1279.74,304.24c3.9,0,7.05-3.16,7.05-7.05s-3.15-7.05-7.05-7.05-7.05,3.16-7.05,7.05,3.16,7.05,7.05,7.05Z" fill="#f3f7ff"/><path d="M1040.36,612.67c3.9,0,7.05-3.16,7.05-7.05s-3.15-7.05-7.05-7.05-7.05,3.16-7.05,7.05,3.16,7.05,7.05,7.05Z" fill="#f3f7ff"/><path d="M1278.46,224.19c3.9,0,7.05-3.16,7.05-7.05s-3.15-7.05-7.05-7.05-7.05,3.16-7.05,7.05,3.16,7.05,7.05,7.05Z" fill="#f3f7ff"/><path d="M1306.59,312.17c3.9,0,7.05-3.16,7.05-7.05s-3.15-7.05-7.05-7.05-7.05,3.16-7.05,7.05,3.16,7.05,7.05,7.05Z" fill="#f3f7ff"/><path d="M1244.7,408.32c3.89,0,7.05-3.16,7.05-7.05s-3.16-7.05-7.05-7.05-7.05,3.16-7.05,7.05,3.16,7.05,7.05,7.05Z" fill="#f3f7ff"/><path d="M1353.65,479.43c3.89,0,7.05-3.16,7.05-7.05s-3.16-7.05-7.05-7.05-7.05,3.16-7.05,7.05,3.15,7.05,7.05,7.05Z" fill="#f3f7ff"/><path d="M1310.68,432.37c3.9,0,7.05-3.16,7.05-7.05s-3.15-7.05-7.05-7.05-7.05,3.16-7.05,7.05,3.16,7.05,7.05,7.05Z" fill="#f3f7ff"/><path d="M886.67,758.28c1.4,0,2.53-1.13,2.53-2.53s-1.13-2.53-2.53-2.53-2.53,1.13-2.53,2.53,1.13,2.53,2.53,2.53Z" fill="none" stroke="#f3f7ff" stroke-miterlimit="10" stroke-width="2.94"/><path d="M912.49,732.44c1.4,0,2.53-1.13,2.53-2.53s-1.13-2.53-2.53-2.53-2.53,1.13-2.53,2.53,1.13,2.53,2.53,2.53Z" fill="none" stroke="#f3f7ff" stroke-miterlimit="10" stroke-width="2.94"/><path d="M937.81,707.13c1.4,0,2.53-1.13,2.53-2.53s-1.13-2.53-2.53-2.53-2.53,1.13-2.53,2.53,1.13,2.53,2.53,2.53Z" fill="none" stroke="#f3f7ff" stroke-miterlimit="10" stroke-width="2.94"/><path d="M1099.95,451.91c.99,.99,.99,2.6,0,3.58-.99,.99-2.6,.99-3.58,0-.99-.99-.99-2.6,0-3.58,.98-.99,2.59-.99,3.58,0Z" fill="none" stroke="#f3f7ff" stroke-miterlimit="10" stroke-width="2.94"/><path d="M1263.38,262.92c.98,.99,.98,2.6,0,3.58-.99,.99-2.6,.99-3.59,0s-.99-2.6,0-3.58c.99-.99,2.6-.99,3.59,0Z" fill="none" stroke="#f3f7ff" stroke-miterlimit="10" stroke-width="2.94"/><path d="M1333.96,326.32c1.4,0,2.53-1.13,2.53-2.53s-1.13-2.53-2.53-2.53-2.53,1.13-2.53,2.53,1.13,2.53,2.53,2.53Z" fill="none" stroke="#f3f7ff" stroke-miterlimit="10" stroke-width="2.94"/><path d="M884.87,715.58c.99,.99,.99,2.6,0,3.58s-2.6,.99-3.58,0-.99-2.59,0-3.58c.99-.99,2.6-.99,3.58,0Z" fill="none" stroke="#f3f7ff" stroke-miterlimit="10" stroke-width="2.94"/><path d="M858.02,744.97c1.4,0,2.53-1.13,2.53-2.53s-1.13-2.53-2.53-2.53-2.53,1.13-2.53,2.53,1.13,2.53,2.53,2.53Z" fill="none" stroke="#f3f7ff" stroke-miterlimit="10" stroke-width="2.94"/><path d="M845.1,753.57c-1.2,1.2-1.2,3.15,0,4.35s3.15,1.2,4.35,0c1.2-1.2,1.2-3.15,0-4.35-1.2-1.2-3.15-1.2-4.35,0Z" fill="#f3f7ff"/><path d="M896.89,746.03c1.7,0,3.08-1.38,3.08-3.08s-1.38-3.08-3.08-3.08-3.08,1.38-3.08,3.08,1.38,3.08,3.08,3.08Z" fill="#f3f7ff"/><path d="M920.29,715.2c-1.2,1.2-1.2,3.15,0,4.35,1.2,1.2,3.15,1.2,4.35,0,1.2-1.2,1.2-3.15,0-4.35-1.2-1.2-3.15-1.2-4.35,0Z" fill="#f3f7ff"/><path d="M896.26,702.42c-1.2,1.2-1.2,3.15,0,4.35,1.2,1.2,3.15,1.2,4.35,0,1.2-1.2,1.2-3.15,0-4.35-1.2-1.2-3.15-1.2-4.35,0Z" fill="#f3f7ff"/><path d="M986.28,561.25c-1.2,1.2-1.2,3.15,0,4.35s3.15,1.2,4.35,0,1.2-3.15,0-4.35c-1.2-1.2-3.15-1.2-4.35,0Z" fill="#f3f7ff"/><path d="M1138.31,391.06c1.7,0,3.08-1.38,3.08-3.08s-1.38-3.08-3.08-3.08-3.07,1.38-3.07,3.08,1.37,3.08,3.07,3.08Z" fill="#f3f7ff"/><path d="M1368.74,219.45c1.7,0,3.07-1.38,3.07-3.08s-1.37-3.08-3.07-3.08-3.08,1.38-3.08,3.08,1.38,3.08,3.08,3.08Z" fill="#f3f7ff"/><path d="M870.68,727.99c-1.2,1.2-1.2,3.15,0,4.35s3.15,1.2,4.35,0c1.2-1.2,1.2-3.15,0-4.35-1.2-1.2-3.15-1.2-4.35,0Z" fill="#f3f7ff"/><path d="M1084.61,599.48l52.94-52.94h64.17l83.69-83.68" fill="none" stroke="#f3f7ff" stroke-miterlimit="10" stroke-width="7.85"/><path d="M994.72,531.57l73.65-73.65v-43.22" fill="none" stroke="#f3f7ff" stroke-miterlimit="10" stroke-width="7.85"/><path d="M1138.62,419.51l88.12-88.11h18.76l34.14-34.14" fill="none" stroke="#f3f7ff" stroke-miterlimit="10" stroke-width="4.91"/><path d="M1355.83,470.2l-106.2,106.21v25.14" fill="none" stroke="#f3f7ff" stroke-miterlimit="10" stroke-width="4.91"/><path d="M.4,399.6H139.96l88.89,88.88h323.79l43-43h203.67l33.12,33.12h115.17" fill="none" stroke="#f3f7ff" stroke-miterlimit="10" stroke-width="7.85"/><path d="M600.93,556.02l-47.02-47.02h-171.8l-61.3,61.3H86.62" fill="none" stroke="#f3f7ff" stroke-miterlimit="10" stroke-width="4.91"/><path d="M917.75,494.53h-99.64l-30.3-30.29" fill="none" stroke="#f3f7ff" stroke-miterlimit="10" stroke-width="4.91"/><path d="M0,607.56H385.91l45.75,45.75" fill="none" stroke="#f3f7ff" stroke-miterlimit="10" stroke-width="7.85"/><path d="M587.73,509.19l67.09,67.09h115.55l33.64,33.64" fill="none" stroke="#f3f7ff" stroke-miterlimit="10" stroke-width="7.85"/><path d="M683.93,386.57h-87.89l-78.11-78.12" fill="none" stroke="#f3f7ff" stroke-miterlimit="10" stroke-width="7.85"/><path d="M774.89,414.97H458.43l-51.55-51.54h-129.48" fill="none" stroke="#f3f7ff" stroke-miterlimit="10" stroke-width="4.91"/><path d="M.4,526.36H92.77l37.97-37.97" fill="none" stroke="#f3f7ff" stroke-miterlimit="10" stroke-width="4.91"/><path d="M240.33,464.25h291.15" fill="none" stroke="#f3f7ff" stroke-miterlimit="10" stroke-width="4.91"/><path d="M883.22,510.81h-187.35l-30.92,30.92" fill="none" stroke="#f3f7ff" stroke-miterlimit="10" stroke-width="4.91"/><path d="M852.83,460.36h73.24l18.54-18.54" fill="none" stroke="#f3f7ff" stroke-miterlimit="10" stroke-width="7.85"/><path d="M.4,375.18H149.91l66,66.01h142.86" fill="none" stroke="#f3f7ff" stroke-miterlimit="10" stroke-width="7.85"/><path d="M.4,347.51H159.86l52.94,52.95" fill="none" stroke="#f3f7ff" stroke-miterlimit="10" stroke-width="4.91"/><path d="M385.91,530.7h150.99" fill="none" stroke="#f3f7ff" stroke-miterlimit="10" stroke-width="2.94"/><path d="M774.08,494.53l-26-26" fill="none" stroke="#f3f7ff" stroke-miterlimit="10" stroke-width="2.94"/><path d="M756,494.53l-26-26" fill="none" stroke="#f3f7ff" stroke-miterlimit="10" stroke-width="2.94"/><path d="M737.91,494.53l-26-26" fill="none" stroke="#f3f7ff" stroke-miterlimit="10" stroke-width="2.94"/><path d="M719.83,494.53l-26-26" fill="none" stroke="#f3f7ff" stroke-miterlimit="10" stroke-width="2.94"/><path d="M701.75,494.53l-26-26" fill="none" stroke="#f3f7ff" stroke-miterlimit="10" stroke-width="2.94"/><path d="M308.32,548.78H136.53" fill="none" stroke="#f3f7ff" stroke-miterlimit="10" stroke-width="2.94"/><path d="M24.23,507.37h48.83l49.73-49.72" fill="none" stroke="#f3f7ff" stroke-miterlimit="10" stroke-width="2.94"/><path d="M956.63,488.57c5,0,9.05-4.05,9.05-9.05s-4.05-9.05-9.05-9.05-9.05,4.05-9.05,9.05,4.05,9.05,9.05,9.05Z" fill="none" stroke="#f3f7ff" stroke-miterlimit="10" stroke-width="7.85"/><path d="M367.83,450.24c5,0,9.05-4.05,9.05-9.05s-4.05-9.05-9.05-9.05-9.05,4.05-9.05,9.05,4.05,9.05,9.05,9.05Z" fill="none" stroke="#f3f7ff" stroke-miterlimit="10" stroke-width="7.85"/><path d="M505.98,446.25c5,0,9.05-4.05,9.05-9.05s-4.05-9.05-9.05-9.05-9.05,4.05-9.05,9.05,4.05,9.05,9.05,9.05Z" fill="none" stroke="#f3f7ff" stroke-miterlimit="10" stroke-width="7.85"/><path d="M844.52,469.41c5,0,9.05-4.05,9.05-9.05s-4.05-9.05-9.05-9.05-9.05,4.05-9.05,9.05,4.05,9.05,9.05,9.05Z" fill="none" stroke="#f3f7ff" stroke-miterlimit="10" stroke-width="7.85"/><path d="M589.45,503.07c.8-4.93-2.55-9.58-7.48-10.38-4.93-.8-9.58,2.55-10.38,7.48-.8,4.93,2.55,9.58,7.48,10.38,4.93,.8,9.58-2.55,10.38-7.48Z" fill="none" stroke="#f3f7ff" stroke-miterlimit="10" stroke-width="7.85"/><path d="M522.26,558.01c5,0,9.05-4.05,9.05-9.05s-4.05-9.05-9.05-9.05-9.05,4.05-9.05,9.05,4.05,9.05,9.05,9.05Z" fill="none" stroke="#f3f7ff" stroke-miterlimit="10" stroke-width="7.85"/><path d="M692.97,395.62c5,0,9.05-4.05,9.05-9.05s-4.05-9.05-9.05-9.05-9.05,4.05-9.05,9.05,4.05,9.05,9.05,9.05Z" fill="none" stroke="#f3f7ff" stroke-miterlimit="10" stroke-width="7.85"/><path d="M944.7,452.4c5.79,0,10.49-4.7,10.49-10.49s-4.7-10.49-10.49-10.49-10.49,4.7-10.49,10.49,4.7,10.49,10.49,10.49Z" fill="#f3f7ff"/><path d="M527.61,312.46c2.22-5.35-.33-11.49-5.68-13.7-5.35-2.22-11.49,.32-13.7,5.68-2.22,5.35,.32,11.49,5.68,13.7s11.49-.33,13.71-5.68Z" fill="#f3f7ff"/><path d="M431.48,663.98c5.79,0,10.49-4.7,10.49-10.49s-4.7-10.49-10.49-10.49-10.49,4.7-10.49,10.49,4.7,10.49,10.49,10.49Z" fill="#f3f7ff"/><path d="M813.7,614.11c2.22-5.35-.33-11.49-5.68-13.71-5.35-2.22-11.49,.33-13.7,5.68-2.22,5.35,.32,11.49,5.68,13.71,5.35,2.22,11.49-.33,13.71-5.68Z" fill="#f3f7ff"/><path d="M376.5,589.84c5.79,0,10.49-4.7,10.49-10.49s-4.7-10.49-10.49-10.49-10.49,4.7-10.49,10.49,4.7,10.49,10.49,10.49Z" fill="#f3f7ff"/><path d="M266.81,396.11c2.26-5.34-.24-11.49-5.58-13.75-5.34-2.26-11.49,.24-13.75,5.58-2.26,5.34,.24,11.49,5.58,13.75s11.49-.24,13.75-5.58Z" fill="#f3f7ff"/><path d="M893.52,515.16c2.4-2.4,2.4-6.3,0-8.7-2.4-2.4-6.3-2.4-8.7,0s-2.4,6.3,0,8.7c2.4,2.4,6.3,2.4,8.7,0Z" fill="none" stroke="#f3f7ff" stroke-miterlimit="10" stroke-width="4.91"/><path d="M391.01,314.97c.71-3.32-1.41-6.59-4.73-7.3-3.32-.71-6.59,1.41-7.3,4.73s1.41,6.59,4.73,7.3c3.32,.71,6.59-1.41,7.3-4.73Z" fill="none" stroke="#f3f7ff" stroke-miterlimit="10" stroke-width="4.91"/><path d="M343.6,527.79c.79-3.3-1.26-6.62-4.56-7.41-3.31-.79-6.62,1.26-7.41,4.56-.79,3.31,1.26,6.62,4.56,7.41,3.3,.79,6.62-1.26,7.41-4.56Z" fill="none" stroke="#f3f7ff" stroke-miterlimit="10" stroke-width="4.91"/><path d="M787.2,464.53c2.4-2.4,2.4-6.3,0-8.7-2.4-2.4-6.3-2.4-8.7,0-2.4,2.4-2.4,6.3,0,8.7,2.4,2.4,6.3,2.4,8.7,0Z" fill="none" stroke="#f3f7ff" stroke-miterlimit="10" stroke-width="4.91"/><path d="M611.59,561.73c.78-3.31-1.27-6.62-4.58-7.4-3.31-.78-6.62,1.27-7.4,4.57-.78,3.31,1.27,6.62,4.57,7.4,3.31,.78,6.62-1.27,7.4-4.57Z" fill="none" stroke="#f3f7ff" stroke-miterlimit="10" stroke-width="4.91"/><path d="M275.71,367.3c2.24-2.56,1.98-6.44-.58-8.68-2.56-2.24-6.44-1.98-8.68,.58-2.24,2.56-1.98,6.44,.58,8.68,2.56,2.24,6.44,1.98,8.68-.58Z" fill="none" stroke="#f3f7ff" stroke-miterlimit="10" stroke-width="4.91"/><path d="M925.06,501.44c3.84-.62,6.45-4.24,5.83-8.09-.62-3.84-4.24-6.45-8.09-5.83-3.84,.62-6.45,4.25-5.83,8.09,.62,3.84,4.25,6.45,8.09,5.83Z" fill="#f3f7ff"/><path d="M776.49,421.87c3.79-.89,6.14-4.69,5.24-8.48-.9-3.79-4.69-6.14-8.48-5.24-3.79,.89-6.14,4.69-5.24,8.48,.89,3.79,4.69,6.14,8.48,5.24Z" fill="#f3f7ff"/><path d="M666.54,548.81c3.79-.89,6.14-4.69,5.24-8.48-.89-3.79-4.69-6.14-8.48-5.24-3.79,.9-6.14,4.69-5.24,8.48,.89,3.79,4.69,6.14,8.48,5.24Z" fill="#f3f7ff"/><path d="M149.41,517.66c2.56-2.93,2.26-7.39-.67-9.95-2.93-2.56-7.39-2.26-9.95,.67-2.56,2.93-2.26,7.39,.67,9.95,2.93,2.56,7.39,2.26,9.95-.67Z" fill="#f3f7ff"/><path d="M531.48,471.2c3.89,0,7.05-3.16,7.05-7.05s-3.16-7.05-7.05-7.05-7.05,3.16-7.05,7.05,3.16,7.05,7.05,7.05Z" fill="#f3f7ff"/><path d="M90.01,577.36c3.79-.89,6.14-4.69,5.24-8.48-.89-3.79-4.69-6.14-8.48-5.24-3.79,.89-6.14,4.69-5.24,8.48,.89,3.79,4.69,6.14,8.48,5.24Z" fill="#f3f7ff"/><path d="M132.32,495.27c3.79-.89,6.14-4.68,5.26-8.47-.89-3.79-4.68-6.14-8.47-5.26-3.79,.89-6.15,4.68-5.26,8.47,.89,3.79,4.68,6.15,8.47,5.26Z" fill="#f3f7ff"/><path d="M244.09,471.04c3.79-.9,6.13-4.7,5.23-8.49-.9-3.79-4.7-6.13-8.49-5.23-3.79,.9-6.13,4.7-5.23,8.49,.9,3.79,4.7,6.13,8.49,5.23Z" fill="#f3f7ff"/><path d="M215.73,343.89c3.89,0,7.05-3.16,7.05-7.05s-3.16-7.05-7.05-7.05-7.05,3.16-7.05,7.05,3.16,7.05,7.05,7.05Z" fill="#f3f7ff"/><path d="M214.42,407.38c3.79-.89,6.15-4.68,5.26-8.47-.89-3.79-4.68-6.15-8.47-5.26-3.79,.89-6.15,4.68-5.26,8.47,.89,3.79,4.68,6.15,8.47,5.26Z" fill="#f3f7ff"/><path d="M746.31,469.22c1.4,0,2.53-1.13,2.53-2.53s-1.13-2.53-2.53-2.53-2.53,1.13-2.53,2.53,1.13,2.53,2.53,2.53Z" fill="none" stroke="#f3f7ff" stroke-miterlimit="10" stroke-width="2.94"/><path d="M709.79,469.22c1.4,0,2.53-1.13,2.53-2.53s-1.13-2.53-2.53-2.53-2.53,1.13-2.53,2.53,1.13,2.53,2.53,2.53Z" fill="none" stroke="#f3f7ff" stroke-miterlimit="10" stroke-width="2.94"/><path d="M673.98,469.22c1.4,0,2.53-1.13,2.53-2.53s-1.13-2.53-2.53-2.53-2.53,1.13-2.53,2.53,1.13,2.53,2.53,2.53Z" fill="none" stroke="#f3f7ff" stroke-miterlimit="10" stroke-width="2.94"/><path d="M383.2,533.23c1.4,0,2.53-1.13,2.53-2.53s-1.13-2.53-2.53-2.53-2.53,1.13-2.53,2.53,1.13,2.53,2.53,2.53Z" fill="none" stroke="#f3f7ff" stroke-miterlimit="10" stroke-width="2.94"/><path d="M134,551.32c1.4,0,2.53-1.13,2.53-2.53s-1.13-2.53-2.53-2.53-2.53,1.13-2.53,2.53,1.13,2.53,2.53,2.53Z" fill="none" stroke="#f3f7ff" stroke-miterlimit="10" stroke-width="2.94"/><path d="M124.59,458.37c1.4,0,2.53-1.13,2.53-2.53s-1.13-2.53-2.53-2.53-2.53,1.13-2.53,2.53,1.13,2.53,2.53,2.53Z" fill="none" stroke="#f3f7ff" stroke-miterlimit="10" stroke-width="2.94"/><path d="M721.73,498.88c1.4,0,2.53-1.13,2.53-2.53s-1.13-2.53-2.53-2.53-2.53,1.13-2.53,2.53,1.13,2.53,2.53,2.53Z" fill="none" stroke="#f3f7ff" stroke-miterlimit="10" stroke-width="2.94"/><path d="M757.17,498.88c1.4,0,2.53-1.13,2.53-2.53s-1.13-2.53-2.53-2.53-2.53,1.13-2.53,2.53,1.13,2.53,2.53,2.53Z" fill="none" stroke="#f3f7ff" stroke-miterlimit="10" stroke-width="2.94"/><path d="M774.17,497.61c1.7,0,3.08-1.38,3.08-3.08s-1.38-3.08-3.08-3.08-3.08,1.38-3.08,3.08,1.38,3.08,3.08,3.08Z" fill="#f3f7ff"/><path d="M730.05,471.57c1.7,0,3.08-1.38,3.08-3.08s-1.38-3.08-3.08-3.08-3.08,1.38-3.08,3.08,1.38,3.08,3.08,3.08Z" fill="#f3f7ff"/><path d="M693.88,471.57c1.7,0,3.08-1.38,3.08-3.08s-1.38-3.08-3.08-3.08-3.08,1.38-3.08,3.08,1.38,3.08,3.08,3.08Z" fill="#f3f7ff"/><path d="M701.84,497.61c1.7,0,3.08-1.38,3.08-3.08s-1.38-3.08-3.08-3.08-3.08,1.38-3.08,3.08,1.38,3.08,3.08,3.08Z" fill="#f3f7ff"/><path d="M541.2,531.88c.65-1.57-.1-3.37-1.67-4.02-1.57-.65-3.37,.1-4.02,1.66-.65,1.57,.09,3.37,1.66,4.02,1.57,.65,3.37-.09,4.02-1.66Z" fill="#f3f7ff"/><path d="M308.32,551.86c1.7,0,3.08-1.38,3.08-3.08s-1.38-3.08-3.08-3.08-3.08,1.38-3.08,3.08,1.38,3.08,3.08,3.08Z" fill="#f3f7ff"/><path d="M24.04,510.27c1.7,0,3.08-1.38,3.08-3.08s-1.38-3.08-3.08-3.08-3.08,1.38-3.08,3.08,1.38,3.08,3.08,3.08Z" fill="#f3f7ff"/><path d="M738,497.61c1.7,0,3.08-1.38,3.08-3.08s-1.38-3.08-3.08-3.08-3.08,1.38-3.08,3.08,1.38,3.08,3.08,3.08Z" fill="#f3f7ff"/><path d="M495.86,437.21h-74.87l-45.38-45.38h-118.34" fill="none" stroke="#f3f7ff" stroke-miterlimit="10" stroke-width="7.85"/><path d="M511.4,548.78h-104.17l-30.55,30.56" fill="none" stroke="#f3f7ff" stroke-miterlimit="10" stroke-width="7.85"/><path d="M330.41,526.27h-124.62l-13.26-13.27h-48.28" fill="none" stroke="#f3f7ff" stroke-miterlimit="10" stroke-width="4.91"/><path d="M212.66,336.84h150.19l17.79-17.77" fill="none" stroke="#f3f7ff" stroke-miterlimit="10" stroke-width="4.91"/></g></svg>