<svg id="a" xmlns="http://www.w3.org/2000/svg" width="35" height="30.55" viewBox="0 0 35 30.55"><circle cx="10.5" cy="14.5" r="2.5"/><circle cx="18" cy="14.5" r="2.5"/><circle cx="25.5" cy="14.5" r="2.5"/><path d="M32.83,30.55l-8.63-3.14c-2.14,.72-4.39,1.09-6.7,1.09C7.85,28.5,0,22.11,0,14.25S7.85,0,17.5,0s17.5,6.39,17.5,14.25c0,3.17-1.3,6.26-3.68,8.75l1.51,7.55Zm-8.62-5.26l5.96,2.17-1.02-5.12,.39-.38c2.23-2.17,3.46-4.91,3.46-7.71,0-6.75-6.95-12.25-15.5-12.25S2,7.5,2,14.25s6.95,12.25,15.5,12.25c2.2,0,4.35-.37,6.37-1.09l.34-.12Z"/></svg>