<?xml version="1.0" encoding="UTF-8"?><svg id="a" xmlns="http://www.w3.org/2000/svg" width="30" height="29.31" viewBox="0 0 30 29.31"><path d="M15,0C6.72,0,0,6.72,0,15c0,6.71,4.41,12.39,10.48,14.3t.02,.01v-3.44s-.56,.19-1.31,.19c-2.1,0-2.97-1.87-3.19-2.81-.13-.57-.48-1.12-.85-1.45-.44-.39-.65-.39-.65-.53-.01-.28,.38-.27,.56-.27,.94,0,1.65,1,1.98,1.51,.82,1.28,1.7,1.49,2.15,1.49,.56,0,1.05-.08,1.38-.25,.16-1.08,.64-2.06,1.43-2.75-3.52-.7-6-2.72-6-6,0-1.69,.68-3.24,1.81-4.5-.12-.32-.31-.98-.31-2.06,0-.72,.05-1.59,.37-2.44,0,0,2.14,.01,4.16,1.93,.93-.28,1.93-.43,2.97-.43s2.04,.15,2.97,.43c2.02-1.91,4.15-1.93,4.15-1.93,.33,.85,.38,1.73,.38,2.44,0,1.16-.15,1.84-.25,2.13,1.1,1.24,1.75,2.77,1.75,4.43,0,3.28-2.48,5.3-6,6,.94,.83,1.5,2.03,1.5,3.38v4.93c6.08-1.91,10.5-7.6,10.5-14.31C30,6.72,23.28,0,15,0Z" fill="#eeab00"/></svg>