<?xml version="1.0" encoding="UTF-8"?><svg id="a" xmlns="http://www.w3.org/2000/svg" width="28" height="28" viewBox="0 0 28 28"><path d="M25.45,0H2.55C1.14,0,0,1.14,0,2.55V25.45c0,1.41,1.14,2.55,2.55,2.55H25.45c1.41,0,2.55-1.14,2.55-2.55V2.55c0-1.41-1.14-2.55-2.55-2.55ZM8.85,22.91h-3.75V10.83h3.75v12.08Zm-1.92-13.81c-1.21,0-2.19-.98-2.19-2.19s.98-2.19,2.19-2.19,2.19,.98,2.19,2.19-.98,2.19-2.19,2.19Zm15.98,13.81h-3.75v-5.87c0-1.4-.03-3.2-1.95-3.2s-2.25,1.53-2.25,3.1v5.98h-3.75V10.83h3.6v1.65h.05c.5-.95,1.73-1.95,3.55-1.95,3.8,0,4.5,2.5,4.5,5.76v6.63Z" fill="#eeab00"/></svg>