<?xml version="1.0" encoding="UTF-8"?><svg id="a" xmlns="http://www.w3.org/2000/svg" width="32" height="32" viewBox="0 0 32 32"><path d="M7.62,0C3.42,0,0,3.42,0,7.62V24.38c0,4.2,3.42,7.62,7.62,7.62H24.38c4.2,0,7.62-3.42,7.62-7.62V7.62c0-4.2-3.42-7.62-7.62-7.62H7.62Zm3.05,6.13c.48,.02,.92,.29,1.18,.7,.3,.47,.77,1.2,1.38,2.15,.56,.87,.59,1.99,.1,2.9l-1.12,1.59c-.3,.43-.36,.98-.16,1.46,.32,.75,.93,1.91,2.01,3s2.25,1.7,3,2.01c.48,.2,1.03,.14,1.46-.16l1.59-1.12c.91-.5,2.03-.46,2.9,.1,.95,.61,1.68,1.08,2.15,1.38,.41,.27,.68,.7,.7,1.18,.12,2.72-1.99,3.82-2.6,3.82-.42,0-5.52,.58-11.26-5.17-5.74-5.74-5.17-10.84-5.17-11.26,0-.61,1.1-2.72,3.82-2.6Z" fill="#eead00"/></svg>