<?xml version="1.0" encoding="UTF-8"?><svg id="a" xmlns="http://www.w3.org/2000/svg" width="24" height="30" viewBox="0 0 24 30"><path d="M20,30H4c-2.21,0-4-1.79-4-4V4C0,1.79,1.79,0,4,0H20c2.21,0,4,1.79,4,4V26c0,2.21-1.79,4-4,4ZM4,2c-1.1,0-2,.9-2,2V26c0,1.1,.9,2,2,2H20c1.1,0,2-.9,2-2V4c0-1.1-.9-2-2-2H4Z" fill="#eeab00"/><path d="M8,10h-3c-1.1,0-2-.9-2-2v-3c0-1.1,.9-2,2-2h3c1.1,0,2,.9,2,2v3c0,1.1-.9,2-2,2Zm-3-5v3h3v-3h-3Z" fill="#eeab00"/><path d="M20,5H12c-.55,0-1-.45-1-1s.45-1,1-1h8c.55,0,1,.45,1,1s-.45,1-1,1Z" fill="#eeab00"/><path d="M20,13H4c-.55,0-1-.45-1-1s.45-1,1-1H20c.55,0,1,.45,1,1s-.45,1-1,1Z" fill="#eeab00"/><path d="M17,17H4c-.55,0-1-.45-1-1s.45-1,1-1h13c.55,0,1,.45,1,1s-.45,1-1,1Z" fill="#eeab00"/><path d="M18,21H4c-.55,0-1-.45-1-1s.45-1,1-1h14c.55,0,1,.45,1,1s-.45,1-1,1Z" fill="#eeab00"/><path d="M10,25H4c-.55,0-1-.45-1-1s.45-1,1-1h6c.55,0,1,.45,1,1s-.45,1-1,1Z" fill="#eeab00"/><path d="M18,8h-6c-.55,0-1-.45-1-1s.45-1,1-1h6c.55,0,1,.45,1,1s-.45,1-1,1Z" fill="#eeab00"/></svg>