<?xml version="1.0" encoding="UTF-8"?><svg id="a" xmlns="http://www.w3.org/2000/svg" width="29.47" height="34" viewBox="0 0 29.47 34"><path d="M27.96,21.42V12.58c.89-.43,1.51-1.33,1.51-2.38,0-1.46-1.18-2.64-2.64-2.64-.42,0-.82,.11-1.17,.29L17.35,2.93c.01-.1,.03-.19,.03-.29,0-1.46-1.18-2.64-2.64-2.64s-2.64,1.18-2.64,2.64c0,.1,.02,.19,.03,.29L3.82,7.84c-.35-.18-.75-.29-1.17-.29-1.46,0-2.64,1.18-2.64,2.64,0,1.05,.62,1.95,1.51,2.38v8.84c-.89,.43-1.51,1.33-1.51,2.38,0,1.46,1.18,2.64,2.64,2.64,.42,0,.82-.11,1.17-.29l8.3,4.91c-.01,.1-.03,.19-.03,.29,0,1.46,1.18,2.64,2.64,2.64s2.64-1.18,2.64-2.64c0-.1-.02-.19-.03-.29l8.3-4.91c.35,.18,.75,.29,1.17,.29,1.46,0,2.64-1.18,2.64-2.64,0-1.05-.62-1.95-1.51-2.38Zm-22.7,2c-.09-.61-.38-1.15-.8-1.55L13.96,5.16c.25,.08,.5,.13,.78,.13s.53-.05,.78-.13l9.51,16.71c-.43,.4-.72,.94-.8,1.55H5.25Zm.04-13.22c0-.46-.13-.89-.34-1.27l7.72-4.56L3.09,21.2s-.05,0-.07,0V12.81c1.28-.18,2.27-1.28,2.27-2.61Zm21.16,2.61v8.39s-.05,0-.07,0L16.79,4.36l7.72,4.56c-.21,.38-.34,.81-.34,1.27,0,1.33,.99,2.42,2.27,2.61Zm-11.71,15.9c-.81,0-1.53,.38-2.02,.95l-7.77-4.59s.05-.09,.08-.14H24.44s.05,.09,.08,.14l-7.77,4.59c-.49-.58-1.2-.95-2.02-.95Z" fill="#00ead0"/></svg>