<?xml version="1.0" encoding="UTF-8"?><svg id="a" xmlns="http://www.w3.org/2000/svg" width="31.03" height="22.66" viewBox="0 0 31.03 22.66"><path d="M22.12,22.66H3.01c-1.08,0-2.05-.56-2.6-1.5-.54-.94-.54-2.06,0-3L9.96,1.51c.54-.94,1.51-1.51,2.6-1.51s2.06,.56,2.6,1.51l9.56,16.66c.54,.94,.54,2.06,0,3-.54,.94-1.51,1.5-2.6,1.5ZM12.56,2c-.17,0-.61,.05-.87,.5L2.14,19.16c-.26,.45-.08,.85,0,1s.34,.5,.87,.5H22.12c.52,0,.78-.35,.87-.5,.09-.15,.26-.55,0-1L13.43,2.5c-.26-.45-.69-.5-.87-.5Z" fill="#00ead0"/><path d="M28.02,22.66H11.78c-1.08,0-2.06-.56-2.6-1.5-.54-.94-.54-2.06,0-3L17.3,4.13c.54-.94,1.51-1.5,2.6-1.5s2.05,.56,2.6,1.5l8.12,14.02c.54,.94,.55,2.06,0,3-.54,.94-1.51,1.5-2.6,1.5ZM19.9,4.64c-.17,0-.6,.05-.87,.5l-8.12,14.02c-.26,.45-.09,.85,0,1s.34,.5,.87,.5H28.02c.52,0,.78-.35,.87-.5s.26-.55,0-1L20.77,5.14c-.26-.45-.69-.5-.87-.5Z" fill="#00ead0"/></svg>