<?xml version="1.0" encoding="UTF-8"?><svg id="a" xmlns="http://www.w3.org/2000/svg" width="22" height="32" viewBox="0 0 22 32"><path d="M22,6c0-3.31-2.69-6-6-6H6C2.69,0,0,2.69,0,6c0,2.09,1.07,3.92,2.69,5-1.62,1.08-2.69,2.91-2.69,5s1.07,3.92,2.69,5c-1.62,1.08-2.69,2.91-2.69,5,0,3.31,2.69,6,6,6s6-2.69,6-6V12h4c3.31,0,6-2.69,6-6ZM2,6c0-2.21,1.79-4,4-4h4V10H6c-2.21,0-4-1.79-4-4ZM10,26c0,2.21-1.79,4-4,4s-4-1.79-4-4,1.79-4,4-4h4v4Zm0-6H6c-2.21,0-4-1.79-4-4s1.79-4,4-4h4v8ZM12,2h4c2.21,0,4,1.79,4,4s-1.79,4-4,4h-4V2Z" fill="#c500c5"/><path d="M16.85,12.46c-2.29,0-4.15,1.86-4.15,4.15s1.86,4.15,4.15,4.15,4.15-1.86,4.15-4.15-1.86-4.15-4.15-4.15Z" fill="#c500c5"/></svg>