<?xml version="1.0" encoding="UTF-8"?><svg id="a" xmlns="http://www.w3.org/2000/svg" width="30.34" height="29.36" viewBox="0 0 30.34 29.36"><g><path d="M22.13,29.36h-1.46l-.58-1.51h-2.66l-.55,1.51h-1.42l2.59-6.65h1.42l2.66,6.65Zm-2.47-2.63l-.92-2.47-.9,2.47h1.81Z" fill="#c500c5"/><path d="M22.85,29.36v-6.65h2.15c.82,0,1.35,.03,1.6,.1,.38,.1,.7,.32,.96,.65,.26,.33,.39,.77,.39,1.29,0,.41-.07,.75-.22,1.03-.15,.28-.34,.5-.56,.66s-.46,.26-.7,.31c-.32,.06-.78,.1-1.39,.1h-.87v2.51h-1.34Zm1.34-5.52v1.89h.73c.53,0,.88-.04,1.06-.1,.18-.07,.32-.18,.42-.33,.1-.15,.15-.32,.15-.52,0-.24-.07-.44-.21-.6-.14-.16-.32-.26-.54-.29-.16-.03-.48-.05-.97-.05h-.65Z" fill="#c500c5"/><path d="M29,29.36v-6.65h1.34v6.65h-1.34Z" fill="#c500c5"/></g><path d="M13.69,8.63c-3.31,0-6,2.68-6,6s2.69,6,6,6,6-2.69,6-6-2.68-6-6-6Zm0,9c-1.66,0-3-1.34-3-3s1.34-3,3-3,3,1.34,3,3-1.34,3-3,3Z" fill="#c500c5"/><path d="M26.07,14.63c0-.69-.06-1.38-.17-2.04-.1-.61,.19-1.22,.73-1.53h0c.64-.37,.92-1.16,.65-1.84-.52-1.33-1.24-2.56-2.11-3.66-.46-.58-1.28-.72-1.92-.35h0c-.54,.31-1.21,.26-1.69-.13-1.05-.86-2.24-1.56-3.54-2.04-.58-.22-.96-.77-.96-1.39h0c0-.74-.54-1.38-1.28-1.49-.68-.1-1.39-.15-2.1-.15s-1.41,.05-2.1,.15c-.73,.11-1.28,.75-1.28,1.49h0c0,.62-.38,1.17-.96,1.39-1.3,.49-2.49,1.18-3.54,2.04-.48,.39-1.15,.44-1.69,.13h0c-.64-.37-1.46-.23-1.92,.35C1.34,6.66,.63,7.89,.1,9.22c-.27,.69,.01,1.47,.65,1.84h0c.54,.31,.83,.92,.73,1.53-.11,.67-.17,1.35-.17,2.04s.06,1.38,.17,2.04c.1,.61-.19,1.22-.73,1.53h0c-.64,.37-.92,1.16-.65,1.84,.52,1.33,1.24,2.56,2.11,3.66,.46,.58,1.28,.72,1.92,.35h0c.54-.31,1.21-.26,1.69,.13,1.05,.86,2.24,1.56,3.54,2.04,.58,.22,.96,.77,.96,1.39h0c0,.74,.53,1.38,1.26,1.49,.57,.08,1.15,.13,1.74,.15v-2.25c-.25,0-.5-.02-.75-.04v-.98c0-.67-.44-1.26-1.09-1.44l-.55-.16c-1.6-.46-3.09-1.32-4.3-2.49l-.4-.39c-.48-.47-1.21-.56-1.79-.22l-.85,.49c-.44-.61-.81-1.27-1.13-1.95l.86-.5c.58-.34,.87-1.02,.7-1.67l-.14-.55c-.2-.79-.31-1.63-.31-2.47s.11-1.68,.31-2.47l.14-.55c.17-.65-.12-1.33-.7-1.67l-.86-.5c.31-.67,.69-1.33,1.13-1.95l.85,.49c.58,.34,1.31,.24,1.79-.22l.4-.39c1.21-1.17,2.71-2.03,4.3-2.48l.55-.16c.64-.19,1.08-.77,1.08-1.44v-.98c.38-.04,.75-.05,1.12-.05s.75,.01,1.12,.05v.98c0,.67,.44,1.26,1.09,1.44l.55,.16c1.6,.46,3.09,1.32,4.31,2.49l.4,.39c.48,.47,1.21,.56,1.79,.22l.85-.49c.43,.62,.81,1.28,1.13,1.95l-.86,.5c-.58,.34-.87,1.02-.7,1.67l.14,.55c.2,.79,.31,1.63,.31,2.47s-.11,1.68-.31,2.47l-.14,.55c-.17,.65,.12,1.33,.7,1.67l.86,.5c-.19,.4-.4,.8-.63,1.19h2.56c.16-.31,.3-.64,.43-.96,.27-.69-.01-1.47-.65-1.84h0c-.54-.31-.83-.92-.73-1.53,.11-.67,.17-1.35,.17-2.04Z" fill="#c500c5"/></svg>