<?xml version="1.0" encoding="UTF-8"?><svg id="a" xmlns="http://www.w3.org/2000/svg" width="36.5" height="36.5" viewBox="0 0 36.5 36.5"><g><path d="M16.6,29.57c.02,.3,.06,.57,.13,.82s.17,.46,.29,.64,.26,.32,.43,.41,.34,.15,.54,.15c.17,0,.34-.02,.5-.07s.3-.13,.42-.24,.22-.26,.29-.44,.11-.4,.11-.66c0-.24-.05-.43-.16-.59s-.24-.3-.41-.42-.36-.23-.58-.32-.44-.19-.67-.3-.45-.22-.67-.35-.41-.29-.58-.48-.31-.41-.41-.68-.16-.58-.16-.96,.05-.72,.16-1.01,.26-.54,.46-.74,.44-.35,.71-.45,.58-.15,.9-.15c.44,0,.8,.09,1.09,.26s.52,.4,.7,.67,.3,.58,.38,.92,.13,.66,.14,.99h-1.1c-.02-.28-.06-.52-.13-.72s-.16-.37-.27-.5-.23-.23-.37-.29-.29-.1-.45-.1c-.14,0-.28,.02-.42,.06s-.26,.1-.37,.19-.2,.2-.26,.35-.1,.32-.1,.52c0,.24,.05,.44,.16,.6s.24,.31,.41,.43,.36,.23,.58,.33,.44,.2,.67,.3,.45,.22,.67,.35,.41,.29,.58,.47,.31,.41,.41,.67,.16,.57,.16,.94c0,.44-.06,.83-.18,1.16s-.29,.61-.5,.83-.47,.38-.76,.5-.61,.17-.96,.17c-.31,0-.62-.07-.91-.22s-.56-.36-.79-.65-.42-.62-.56-1.02-.22-.85-.23-1.36h1.1Z" fill="#c500c5"/><path d="M27.12,28.25c0,.63-.06,1.21-.18,1.74s-.3,1-.52,1.41l.88,1.2-.67,.9-.9-1.23c-.21,.18-.44,.32-.7,.41s-.54,.14-.85,.14c-.47,0-.89-.11-1.25-.34s-.67-.54-.92-.94-.44-.89-.57-1.45-.2-1.18-.2-1.85,.07-1.28,.2-1.84,.32-1.03,.57-1.43,.55-.71,.92-.92,.78-.33,1.25-.33,.89,.11,1.25,.33,.67,.53,.92,.92,.44,.87,.57,1.43,.2,1.17,.2,1.84Zm-1.08,0c0-.53-.05-.99-.14-1.4s-.23-.75-.39-1.03-.36-.49-.59-.64-.47-.22-.74-.22-.5,.07-.73,.22-.42,.36-.59,.64-.3,.62-.39,1.03-.14,.88-.14,1.4,.05,.99,.14,1.41,.22,.76,.39,1.05,.36,.51,.59,.66,.47,.23,.73,.23c.16,0,.31-.02,.43-.06s.26-.12,.4-.22l-.6-.83,.66-.92,.6,.82c.12-.27,.21-.58,.28-.93s.1-.75,.1-1.2Z" fill="#c500c5"/><path d="M29.45,23.95v7.4h3.05v1.25h-4.12v-8.65h1.07Z" fill="#c500c5"/></g><path d="M13.5,0C6.96,0,0,1.58,0,4.5V28.5c0,2.85,6.54,4.42,12.99,4.5v-1c-7.06-.08-11.99-1.91-11.99-3.5v-6.21c2.07,1.72,7.05,2.65,11.99,2.71v-1c-7.06-.08-11.99-1.91-11.99-3.5v-6.23c2.15,1.78,7.44,2.73,12.5,2.73s10.35-.95,12.5-2.73v5.73h1V4.5C27,1.58,20.04,0,13.5,0Zm0,1c7.37,0,12.5,1.84,12.5,3.5s-5.13,3.5-12.5,3.5S1,6.16,1,4.5,6.13,1,13.5,1Zm0,15c-7.37,0-12.5-1.84-12.5-3.5V6.27c2.15,1.78,7.44,2.73,12.5,2.73s10.35-.95,12.5-2.73v6.23c0,1.66-5.13,3.5-12.5,3.5Z" fill="#c500c5"/><path d="M33.93,36.5H15.07c-1.42,0-2.57-1.16-2.57-2.58v-11.85c0-1.42,1.15-2.58,2.57-2.58h18.85c1.42,0,2.57,1.16,2.57,2.58v11.85c0,1.42-1.15,2.58-2.57,2.58ZM15.07,20.5c-.87,0-1.57,.71-1.57,1.58v11.85c0,.87,.71,1.58,1.57,1.58h18.85c.87,0,1.57-.71,1.57-1.58v-11.85c0-.87-.71-1.58-1.57-1.58H15.07Z" fill="#c500c5"/></svg>