<?xml version="1.0" encoding="UTF-8"?><svg id="a" xmlns="http://www.w3.org/2000/svg" width="21.3" height="34" viewBox="0 0 21.3 34"><path d="M19.68,26.86H10.22c-.75-2-2.68-3.42-4.94-3.42-2.91,0-5.31,2.43-5.28,5.34s2.38,5.22,5.28,5.22c2.25,0,4.18-1.41,4.94-3.4h1.19l.68-.68h.91s.68,.68,.68,.68h.53l.68-.68h.91s.68,.68,.68,.68h.46l.68-.68h.91s.68,.68,.68,.68h.46l1.62-1.62v-.5l-1.62-1.62ZM2.75,29.86c-.63,0-1.14-.51-1.14-1.14s.51-1.14,1.14-1.14,1.14,.51,1.14,1.14-.51,1.14-1.14,1.14Z" fill="#00ead0"/><g><path d="M18.08,10.32v-2.75c0-4.18-3.39-7.57-7.57-7.57h0C6.33,0,2.95,3.39,2.95,7.57v2.75H0v14.29c1.22-1.57,3.13-2.58,5.28-2.58,.88,0,1.72,.17,2.49,.48,.58,.23,1.12,.55,1.61,.93,.68,.53,1.25,1.18,1.69,1.93h10.22V10.32h-3.21Zm-11.87,0v-2.82c0-2.38,1.93-4.3,4.3-4.3h0c2.38,0,4.3,1.93,4.3,4.3v2.82H6.21Zm13.05,13.12H10.67v-2.85h-2.9v-2.9h2.9v-2.85h-2.9v-2.9h2.9v2.9h2.9v2.85h2.82v-2.85h2.87v8.59Z" fill="#00ead0"/><rect x="10.67" y="17.75" width="2.85" height="2.79" fill="#00ead0"/><rect x="13.52" y="17.69" width=".05" height=".05" fill="#00ead0"/></g></svg>