<?xml version="1.0" encoding="UTF-8"?><svg id="a" xmlns="http://www.w3.org/2000/svg" width="30" height="33.64" viewBox="0 0 30 33.64"><path d="M29.64,.47c-.27-.3-.65-.47-1.05-.47H1.4C1.01,0,.62,.17,.36,.47S-.04,1.16,0,1.56L3.1,29.39c.06,.57,.46,1.04,1.01,1.19l10.5,3c.13,.04,.26,.05,.39,.05s.26-.02,.39-.05l10.5-3c.55-.16,.95-.63,1.01-1.19L29.99,1.56c.04-.4-.08-.79-.35-1.09Zm-6.74,9.97H10.37l.3,3.57h11.94l-.9,10.55-6.7,2.13-.07-.02-6.63-2.11-.36-4.3h3.25l.14,1.67,3.7,.82,3.64-.82,.39-4.51H7.7l-.88-10.38H23.2l-.29,3.41Z" fill="#00ead0"/></svg>