<?xml version="1.0" encoding="UTF-8"?><svg id="a" xmlns="http://www.w3.org/2000/svg" width="32" height="32" viewBox="0 0 32 32"><path d="M6.67,0C3,0,0,3,0,6.67V25.33c0,3.67,3,6.67,6.67,6.67H25.33c3.67,0,6.67-3,6.67-6.67V6.67c0-3.67-3-6.67-6.67-6.67H6.67Zm0,2.67H25.33c2.23,0,4,1.77,4,4V25.33c0,2.23-1.77,4-4,4H6.67c-2.23,0-4-1.77-4-4V6.67c0-2.23,1.77-4,4-4Zm6.64,5.33c-.58,.01-1.08,.4-1.25,.95l-4,13.33c-.21,.71,.19,1.45,.89,1.66,.71,.21,1.45-.19,1.66-.89,0,0,0,0,0,0l.52-1.72h4.41l.52,1.72c.21,.71,.96,1.11,1.66,.89,.71-.21,1.11-.96,.89-1.66,0,0,0,0,0,0l-4-13.33c-.17-.57-.71-.96-1.31-.95Zm8.47,1.33c-.98,0-1.78,.8-1.78,1.78s.8,1.78,1.78,1.78,1.78-.8,1.78-1.78-.8-1.78-1.78-1.78Zm-8.44,4.64l1.41,4.69h-2.81l1.41-4.69Zm8.42,.23c-.74,.01-1.32,.62-1.31,1.35v7.11c-.01,.74,.58,1.34,1.31,1.35,.74,.01,1.34-.58,1.35-1.31,0-.01,0-.03,0-.04v-7.11c.01-.74-.58-1.34-1.31-1.35-.01,0-.03,0-.04,0Z" fill="#00ead0"/></svg>