<?xml version="1.0" encoding="UTF-8"?><svg id="a" xmlns="http://www.w3.org/2000/svg" width="30" height="30" viewBox="0 0 30 30"><path d="M1.91,0C.86,0,0,.86,0,1.91V28.09c0,1.04,.86,1.91,1.91,1.91H28.09c1.04,0,1.91-.86,1.91-1.91V1.91c0-1.04-.86-1.91-1.91-1.91H1.91Zm0,1.43H28.09c.27,0,.48,.21,.48,.48V28.09c0,.27-.21,.48-.48,.48H1.91c-.27,0-.48-.21-.48-.48V1.91c0-.27,.21-.48,.48-.48ZM13.57,13.57v8.98c0,1.38-.52,1.73-1.43,1.73s-1.61-.59-2.04-1.36l-2.24,1.36c.65,1.38,2.24,2.86,4.45,2.86,2.44,0,4.12-1.3,4.12-4.15V13.57h-2.86Zm8.9,0c-2.43,0-3.99,1.56-3.99,3.6,0,2.22,1.31,3.27,3.28,4.1l.68,.29c1.24,.54,1.86,.88,1.86,1.81,0,.78-.59,1.34-1.72,1.34-1.34,0-1.98-.91-2.56-1.87l-2.14,1.43c.8,1.58,2.24,2.86,4.77,2.86s4.52-1.34,4.52-3.8c0-2.28-1.31-3.29-3.62-4.28l-.68-.29c-1.17-.51-1.68-.84-1.68-1.65,0-.66,.51-1.17,1.31-1.17s1.29,.33,1.75,1.17l2.12-1.36c-.9-1.58-2.14-2.18-3.88-2.18Z" fill="#00ead0"/></svg>