<?xml version="1.0" encoding="UTF-8"?><svg id="a" xmlns="http://www.w3.org/2000/svg" width="34" height="30.65" viewBox="0 0 34 30.65"><path d="M10.88,0c-.87,0-1.67,.19-2.38,.6-2.22,1.28-3.07,4.41-2.62,8.3C2.28,10.47,0,12.76,0,15.33s2.28,4.86,5.88,6.42c-.45,3.89,.4,7.02,2.62,8.3,.71,.41,1.51,.6,2.38,.6,1.85,0,3.98-.93,6.12-2.52,2.14,1.59,4.28,2.52,6.12,2.52,.87,0,1.67-.19,2.38-.6,2.22-1.28,3.07-4.41,2.62-8.3,3.59-1.56,5.88-3.85,5.88-6.42s-2.28-4.86-5.88-6.42c.45-3.89-.4-7.02-2.62-8.3-.71-.41-1.51-.6-2.38-.6-1.85,0-3.98,.93-6.12,2.52C14.86,.93,12.72,0,10.88,0Zm0,2.48c1.11,0,2.57,.59,4.16,1.68-.93,.88-1.85,1.89-2.73,3-1.43,.2-2.78,.5-4.02,.88,0-.09-.02-.18-.03-.26-.15-2.52,.4-4.4,1.48-5.02,.32-.18,.69-.27,1.14-.27Zm12.24,0c.45,0,.82,.09,1.14,.27,1.08,.62,1.63,2.5,1.48,5.02,0,.09-.02,.18-.03,.26-1.25-.37-2.6-.67-4.03-.88-.88-1.12-1.79-2.12-2.73-3,1.59-1.09,3.05-1.68,4.16-1.68Zm-6.12,3.25c.38,.35,.77,.72,1.15,1.12-.38-.01-.76-.03-1.15-.03s-.77,.02-1.15,.03c.39-.4,.76-.77,1.15-1.12Zm0,3.57c1.17,0,2.29,.07,3.34,.18,.64,.88,1.28,1.8,1.87,2.83,.57,.99,1.07,2,1.52,3.01-.44,1.01-.95,2.03-1.52,3.01-.59,1.03-1.23,1.95-1.87,2.82-1.09,.12-2.21,.19-3.35,.19s-2.29-.07-3.34-.18c-.64-.88-1.28-1.8-1.87-2.83-.57-.99-1.07-2-1.52-3.01,.44-1.01,.95-2.02,1.52-3.01,.59-1.03,1.23-1.95,1.87-2.82,1.09-.12,2.21-.19,3.35-.19Zm6.72,.77c.56,.14,1.1,.28,1.61,.45-.12,.52-.26,1.05-.42,1.59-.18-.34-.36-.69-.56-1.03-.2-.35-.43-.67-.64-1Zm-13.45,0c-.21,.34-.43,.65-.64,1-.2,.34-.37,.68-.56,1.03-.16-.54-.3-1.07-.42-1.59,.52-.16,1.06-.31,1.61-.44Zm-3.94,1.35c.3,1.26,.71,2.57,1.25,3.9-.53,1.33-.94,2.63-1.24,3.89-2.47-1.19-3.85-2.67-3.85-3.89s1.35-2.66,3.61-3.79c.08-.04,.16-.07,.24-.11Zm21.34,.01c2.47,1.19,3.85,2.67,3.85,3.89s-1.35,2.66-3.61,3.79c-.08,.04-.16,.07-.24,.11-.3-1.26-.71-2.57-1.24-3.9,.53-1.33,.94-2.63,1.24-3.89Zm-10.67,1.05c-1.57,0-2.83,1.27-2.83,2.83s1.27,2.83,2.83,2.83,2.83-1.27,2.83-2.83-1.27-2.83-2.83-2.83Zm-7.92,6.06c.18,.34,.36,.69,.56,1.03,.2,.35,.43,.67,.64,1-.56-.14-1.1-.28-1.61-.45,.12-.52,.26-1.05,.42-1.59Zm15.84,0c.16,.54,.3,1.06,.42,1.59-.52,.16-1.06,.31-1.61,.44,.21-.34,.43-.65,.64-1,.2-.34,.37-.68,.56-1.02Zm-16.63,4.06c1.25,.37,2.6,.67,4.03,.88,.88,1.12,1.79,2.12,2.73,3-1.59,1.09-3.05,1.68-4.16,1.68-.45,0-.82-.09-1.14-.27-1.08-.62-1.63-2.5-1.48-5.02,0-.09,.02-.18,.03-.27Zm17.43,0c0,.09,.02,.18,.03,.27,.15,2.52-.4,4.4-1.48,5.02-.32,.18-.69,.27-1.14,.27-1.11,0-2.57-.59-4.16-1.68,.94-.88,1.85-1.89,2.73-3,1.43-.2,2.78-.5,4.02-.88Zm-9.86,1.18c.38,.01,.76,.03,1.15,.03s.77-.02,1.15-.03c-.39,.4-.77,.77-1.15,1.12-.38-.35-.77-.72-1.15-1.12Z" fill="#00ead0"/></svg>