<?xml version="1.0" encoding="UTF-8"?><svg id="a" xmlns="http://www.w3.org/2000/svg" width="28.3" height="32" viewBox="0 0 28.3 32"><path d="M5.19,10.24L13.56,5.45V0L.49,7.55l4.7,2.69Zm17.95-.01l4.68-2.67L14.74,0V5.37l8.4,4.85Zm-1.23,.7l-7.76-4.43-7.76,4.43,7.76,4.43,7.76-4.43Zm-17.39,.31L0,8.65v14.84l4.52-2.58V11.24Zm1.14,.65v8.52l7.9,4.51v-8.52l-7.9-4.51Zm-.13,9.83L.62,24.53l12.94,7.47v-5.7l-8.03-4.58Zm9.2-5.31v8.52l7.91-4.52V11.89l-7.91,4.52Zm8.04,5.31l-8.04,4.59v5.69l12.95-7.48-4.91-2.81Zm1.55-10.79l-.54,.31v9.68l4.51,2.58V8.66l-3.97,2.27Z" fill="#00ead0"/></svg>