<?xml version="1.0" encoding="UTF-8"?><svg id="a" xmlns="http://www.w3.org/2000/svg" width="1700" height="140" viewBox="0 0 1700 140"><path d="M1700,0V124.12c-21.73,0-43.44,2.23-64.85,6.73-60.63,12.67-107.93,6.77-136.99-.96-34.41-9.19-94.92-15.83-158.88,1.52-42.18,11.45-86.38,11.45-128.56,0-63.96-17.35-124.44-10.71-158.88-1.52-29.06,7.73-76.36,13.63-136.99,.96-21.41-4.5-43.12-6.73-64.85-6.73s-43.44,2.23-64.85,6.73c-60.63,12.67-107.93,6.77-136.99-.96-34.41-9.19-94.92-15.83-158.88,1.52-42.18,11.45-86.38,11.45-128.56,0-63.96-17.35-124.44-10.71-158.88-1.52-29.06,7.73-76.36,13.63-136.99,.96-21.41-4.5-43.12-6.73-64.85-6.73V0C23.43,0,46.89,2.75,69.84,8.22c71.67,17.07,121.55,15.09,153.32,7.08,31.52-7.94,86.24-15.28,146.36-.98,36.46,8.69,74.5,8.69,110.96,0,60.12-14.3,114.84-6.96,146.36,.98,31.8,8.01,81.65,9.99,153.32-7.08,22.95-5.47,46.41-8.22,69.84-8.22s46.89,2.75,69.84,8.22c71.67,17.07,121.55,15.09,153.32,7.08,31.52-7.94,86.24-15.28,146.36-.98,36.46,8.69,74.5,8.69,110.96,0,60.12-14.3,114.84-6.96,146.36,.98,31.8,8.01,81.65,9.99,153.32-7.08,22.95-5.47,46.41-8.22,69.84-8.22Z"/></svg>