<svg id="a" xmlns="http://www.w3.org/2000/svg" width="34" height="16.98" viewBox="0 0 34 16.98"><rect x="15.08" y=".1" width="3.84" height="16.43" rx=".68" ry=".68" transform="translate(1.99 -3.21) rotate(11.47)"/><path d="M5.63,9.15l4.93,4.93c.25,.25,.25,.67,0,.92l-1.8,1.79c-.25,.25-.66,.25-.92,0L.19,9.15c-.25-.25-.25-.67,0-.92L8.21,.21c.25-.25,.67-.25,.92,0l1.8,1.8c.25,.25,.25,.67,0,.92l-5.3,5.31c-.25,.25-.25,.67,0,.92Z"/><path d="M28.37,9.15l-4.93,4.93c-.25,.25-.25,.67,0,.92l1.8,1.79c.25,.25,.66,.25,.92,0l7.64-7.64c.25-.25,.25-.67,0-.92L25.79,.21c-.25-.25-.67-.25-.92,0l-1.8,1.8c-.25,.25-.25,.67,0,.92l5.3,5.31c.25,.25,.25,.67,0,.92Z"/></svg>